<svg width="20" height="11" viewBox="0 0 20 11" fill="none" xmlns="http://www.w3.org/2000/svg">
<path d="M0.28969 1.64591C0.199024 1.55789 0.126733 1.45274 0.0770113 1.33657C0.0272894 1.2204 0.00112561 1.09552 3.55252e-05 0.969156C-0.00105456 0.842797 0.0229524 0.717479 0.0706627 0.600468C0.118373 0.483456 0.188837 0.377081 0.277972 0.28751C0.653948 -0.0913963 1.26918 -0.0962791 1.65102 0.275791L10.0797 8.45059L18.2721 0.283604C18.65 -0.0923728 19.2643 -0.094326 19.6452 0.279697C19.7354 0.368267 19.8072 0.473887 19.8563 0.590426C19.9055 0.706964 19.9309 0.832101 19.9313 0.958569C19.9317 1.08504 19.9069 1.21032 19.8585 1.32714C19.81 1.44395 19.7388 1.54999 19.6491 1.63907L10.777 10.4828C10.401 10.8568 9.78871 10.8608 9.40785 10.4897L0.28969 1.64591Z" fill="white"/>
</svg>
