<svg width="135" height="45" viewBox="0 0 135 45" fill="none" xmlns="http://www.w3.org/2000/svg">
<path fill-rule="evenodd" clip-rule="evenodd" d="M78.9088 12.4769C77.4216 8.58622 75.0641 5.01299 71.3514 0.647885L72.1131 0C75.8634 4.40935 78.2992 8.08145 79.8428 12.1198C80.281 13.2659 80.6461 14.4387 80.9492 15.6629C82.1897 15.8006 82.898 16.0763 84.4092 16.8157C85.7552 17.4743 87.3682 18.5738 88.2038 19.4028C89.0032 20.1959 90.0325 21.5306 90.4909 22.3683C90.9494 23.2064 91.5365 24.6966 91.7952 25.6798C92.0539 26.663 92.2656 28.1618 92.2656 29.0104C92.2656 29.8591 92.0539 31.3578 91.7952 32.3411C91.5365 33.3243 90.9494 34.8145 90.4909 35.6526C90.0325 36.4903 88.9756 37.852 88.1427 38.6782C87.2049 39.6086 85.7488 40.594 84.3175 41.2668C82.308 42.2115 81.6406 42.3691 79.2015 42.4745C77.1807 42.562 75.8909 42.453 74.5876 42.0845C73.593 41.8029 71.8306 41.0202 70.6715 40.3446C69.5121 39.6694 67.5512 38.1646 66.3135 37.0009C64.9126 35.6836 63.0078 33.3535 61.2675 30.8281C61.1927 30.7195 61.1175 30.6112 61.0421 30.5034H47.0949C46.6831 31.6686 45.5718 32.5034 44.2656 32.5034C42.6088 32.5034 41.2656 31.1602 41.2656 29.5034C41.2656 27.8465 42.6088 26.5034 44.2656 26.5034C45.5718 26.5034 46.6831 27.3382 47.0949 28.5034H59.5779C58.3799 26.9408 57.2095 25.5925 56.297 24.7403C54.9965 23.5262 53.3663 22.3595 52.2422 21.8389C51.2084 21.3602 49.7308 20.8827 48.9586 20.7779C48.0334 20.6524 46.955 20.7599 45.7966 21.0932C44.6053 21.4361 43.5861 22.0102 42.6348 22.8747C41.8627 23.5763 40.908 24.8339 40.5131 25.6692C40.011 26.7317 39.7956 27.7353 39.7956 29.0104C39.7956 30.2856 40.011 31.2892 40.5131 32.3517C40.908 33.187 41.8627 34.4445 42.6348 35.1462C43.5846 36.0095 44.6053 36.5848 45.792 36.9262C46.9839 37.2694 48.0273 37.3676 49.0501 37.2333C49.8778 37.1245 50.9291 36.8761 51.3864 36.6814C51.8439 36.4864 52.787 35.9509 53.482 35.491C54.1774 35.0314 55.4752 34.0393 56.3661 33.2867C57.1158 32.6533 57.5185 32.3131 57.886 32.3476C58.3125 32.3876 58.6916 32.9322 59.5107 34.1089C60.288 35.2258 60.6691 35.7733 60.6087 36.2668C60.5506 36.7414 60.0842 37.1659 59.1694 37.9987C58.1429 38.9331 56.5045 40.1171 55.528 40.6298C54.5512 41.1426 52.9382 41.7947 51.9437 42.079C50.6318 42.4539 49.364 42.5626 47.3297 42.4745C44.8916 42.3691 44.2229 42.2112 42.2168 41.2683C40.7405 40.5743 39.3561 39.6275 38.3732 38.6391C37.5287 37.7898 36.4705 36.4274 36.0219 35.6119C35.5735 34.796 34.9948 33.3243 34.7361 32.3411C34.4774 31.3578 34.2656 29.8591 34.2656 29.0104C34.2656 28.1618 34.4774 26.663 34.7361 25.6798C34.9948 24.6966 35.5686 23.2337 36.0112 22.4291C36.4534 21.6241 37.4345 20.3444 38.1906 19.5853C38.9471 18.826 40.2013 17.836 40.978 17.3856C41.7544 16.9351 43.0822 16.3294 43.9283 16.0399C44.0339 16.0038 44.1466 15.9691 44.2656 15.9361V12.5034H38.2656V10.5034H51.2656V12.5034H48.2656V15.5046C49.8145 15.5218 51.2159 15.723 52.4792 16.1092C53.5864 16.4476 55.5123 17.3998 56.7586 18.2248C58.0048 19.0498 59.9869 20.7277 61.1632 21.9534C62.3395 23.1793 64.2476 25.6102 65.4033 27.3556C65.6403 27.7134 65.9125 28.1015 66.2065 28.5034H78.2656V30.5034H67.7587C68.5008 31.4095 69.2435 32.2489 69.8347 32.8335C71.4715 34.4518 72.8025 35.4463 74.3068 36.1747C76.0913 37.0389 76.7824 37.2099 78.4497 37.2014C79.7959 37.1944 80.9041 36.9866 81.8351 36.5672C82.5965 36.2239 83.6899 35.4776 84.2647 34.9087C84.8395 34.3398 85.6472 33.1451 86.059 32.2542C86.6783 30.9159 86.7866 30.2822 86.6835 28.6074C86.6151 27.4926 86.3128 26.0774 86.0117 25.4629C85.711 24.8481 84.9678 23.8385 84.3601 23.2194C83.77 22.6176 82.688 21.8538 81.9197 21.4922C82.0702 22.9908 82.1701 24.5858 82.2319 26.306L81.2326 26.3419C81.1646 24.4508 81.0504 22.7214 80.8744 21.1131C80.1623 20.9205 79.3681 20.8258 78.4561 20.8225C76.8557 20.8164 76.0658 20.9999 74.4605 21.7505C73.3601 22.265 71.6078 23.467 70.5669 24.4208C68.6737 26.1555 68.6737 26.1555 67.1148 23.9581C65.5559 21.7611 65.5559 21.7611 66.5587 20.7296C67.1105 20.1625 68.5734 19.0264 69.8098 18.2051C71.1051 17.3449 72.966 16.4391 74.2021 16.0676C75.9231 15.55 76.9116 15.447 79.2073 15.5467C79.4548 15.5574 79.6836 15.5683 79.8968 15.5802C79.6196 14.5093 79.2927 13.4813 78.9088 12.4769ZM0 44.5034V9.59426H24.5455V17.2306H9.47727V23.2306H23.0455V30.867H9.47727V44.5034H0ZM117.346 44.5034H103.914V9.59426H117.21C120.8 9.59426 123.903 10.2931 126.516 11.6909C129.141 13.0772 131.164 15.0772 132.585 17.6909C134.016 20.2931 134.732 23.4124 134.732 27.0488C134.732 30.6852 134.022 33.8102 132.602 36.4238C131.181 39.0261 129.17 41.0261 126.567 42.4238C123.965 43.8102 120.891 44.5034 117.346 44.5034ZM113.391 36.4579H117.005C118.732 36.4579 120.204 36.1795 121.42 35.6227C122.647 35.0659 123.579 34.1056 124.215 32.742C124.863 31.3784 125.187 29.4806 125.187 27.0488C125.187 24.617 124.857 22.7193 124.198 21.3556C123.55 19.992 122.596 19.0318 121.335 18.4749C120.085 17.9181 118.55 17.6397 116.732 17.6397H113.391V36.4579Z" fill="white"/>
</svg>
