<svg width="20" height="20" viewBox="0 0 20 20" fill="none" xmlns="http://www.w3.org/2000/svg">
<path d="M3.66736 0.666667C3.68314 0.666667 3.69892 0.666889 3.71514 0.667333C3.74425 0.668 3.77314 0.669778 3.80136 0.671556C3.83936 0.674 3.87736 0.676889 3.91536 0.681333C3.94581 0.684889 3.97603 0.689778 4.00625 0.694444C4.04225 0.700222 4.07803 0.705778 4.11448 0.713556C4.14314 0.719556 4.17114 0.727111 4.20892 0.736667L4.22137 0.74C4.25092 0.747556 4.28048 0.754889 4.30981 0.764C4.33715 0.772444 4.36404 0.782667 4.39115 0.792444L4.40804 0.798667L4.43559 0.808667C4.45737 0.816444 4.47937 0.824222 4.50093 0.833111C4.52804 0.844444 4.5547 0.857556 4.58137 0.870444L4.60226 0.880444L4.63893 0.897778C4.65493 0.905333 4.67093 0.912444 4.68671 0.920889C4.71448 0.935778 4.74137 0.952667 4.76848 0.969111L4.79048 0.982667L4.83315 1.00822C4.8436 1.01444 4.85448 1.02022 4.86493 1.02733C4.89893 1.05 4.9316 1.07556 4.96426 1.10067L4.97626 1.10978C4.99115 1.12111 5.00626 1.13222 5.02138 1.14311L5.03449 1.15244C5.0916 1.19911 5.14538 1.24778 5.19449 1.29667L7.00762 3.10978C7.05673 3.15889 7.10517 3.21267 7.15006 3.26733L7.16184 3.28333C7.17273 3.29844 7.18362 3.31333 7.19495 3.32822L7.20518 3.34178C7.22984 3.374 7.25473 3.40578 7.27718 3.43956C7.28429 3.45022 7.29029 3.46133 7.29673 3.47222L7.32162 3.514L7.33562 3.53689C7.35207 3.56378 7.36873 3.59022 7.3834 3.618C7.39184 3.63378 7.39918 3.65 7.40651 3.666L7.42362 3.70222L7.43384 3.72356C7.44651 3.75 7.45962 3.77644 7.47096 3.80356C7.47984 3.82467 7.48718 3.84622 7.49496 3.86778L7.50518 3.896L7.5114 3.91289C7.5214 3.94 7.5314 3.96711 7.54007 3.99511C7.54896 4.02356 7.55607 4.05244 7.5634 4.08133L7.56873 4.10244C7.57629 4.13178 7.58407 4.16111 7.59051 4.19111C7.59807 4.22644 7.60362 4.262 7.60918 4.29778C7.61407 4.32844 7.61896 4.35889 7.62251 4.39C7.62696 4.42778 7.62962 4.46556 7.63207 4.50311C7.63385 4.532 7.63562 4.56067 7.63629 4.58956C7.63718 4.62933 7.63696 4.66911 7.63585 4.70867C7.63496 4.73556 7.63385 4.76244 7.63207 4.78956C7.6294 4.83111 7.6254 4.87244 7.62051 4.91289C7.6174 4.93756 7.61385 4.96222 7.60985 4.98711C7.60296 5.03022 7.5954 5.07289 7.58607 5.11533C7.58162 5.13533 7.57651 5.15489 7.56985 5.18133C7.55873 5.22578 7.54673 5.26978 7.53296 5.31311C7.5294 5.32444 7.52518 5.33556 7.52118 5.34689L7.51273 5.37044C7.49673 5.41578 7.48029 5.46089 7.4614 5.50489L7.45318 5.52222L7.43896 5.55267C7.41762 5.59911 7.39584 5.64511 7.36873 5.69422L7.3494 5.72711C7.31718 5.78333 7.29184 5.82467 7.26829 5.85978C7.26073 5.86978 7.2534 5.87978 7.24629 5.88978C7.20495 5.94889 7.17006 5.99511 7.13651 6.03511C7.08562 6.096 7.04584 6.14022 7.00762 6.17844L5.78094 7.40511C5.36405 7.822 5.36405 8.5 5.78094 8.91689L11.0832 14.2191C11.2852 14.4211 11.5537 14.5322 11.8392 14.5322C12.1248 14.5322 12.3932 14.4211 12.5952 14.2191L13.8219 12.9924C13.8601 12.9542 13.9044 12.9144 13.9652 12.8633C14.0055 12.8298 14.0517 12.7947 14.1106 12.7533C14.1201 12.7467 14.1295 12.7398 14.1401 12.7318C14.1757 12.7078 14.2175 12.6822 14.2744 12.6496L14.3095 12.6284C14.3548 12.6036 14.4012 12.5818 14.4481 12.5602L14.4781 12.5462L14.4946 12.5384C14.5392 12.5193 14.5846 12.5027 14.6308 12.4864L14.6544 12.478C14.665 12.4742 14.6757 12.4702 14.6866 12.4667C14.7306 12.4527 14.7748 12.4407 14.8268 12.4276C14.8461 12.4227 14.8653 12.4178 14.8848 12.4133C14.9277 12.404 14.9706 12.3962 15.0144 12.3893C15.0386 12.3856 15.0628 12.3818 15.0868 12.3789C15.1284 12.3738 15.1697 12.37 15.2124 12.3671C15.2388 12.3653 15.2655 12.3642 15.2917 12.3633C15.3157 12.3627 15.3397 12.3622 15.3639 12.3622C15.3797 12.3622 15.3955 12.3624 15.4115 12.3629C15.4404 12.3636 15.4693 12.3653 15.4977 12.3671C15.5357 12.3696 15.5735 12.3724 15.6117 12.3767C15.6421 12.3802 15.6724 12.3851 15.7026 12.3898C15.7386 12.3956 15.7744 12.4011 15.8106 12.4089C15.8393 12.4149 15.8675 12.4224 15.905 12.432L15.9175 12.4353C15.947 12.4429 15.9766 12.4502 16.0059 12.4593C16.0335 12.4678 16.0604 12.478 16.0875 12.4878L16.1042 12.4938L16.1317 12.5038C16.1535 12.5116 16.1755 12.5193 16.197 12.5282C16.2242 12.5396 16.2506 12.5527 16.2773 12.5653L16.2982 12.5753L16.3348 12.5927C16.3508 12.6002 16.3668 12.6073 16.3826 12.6158C16.4104 12.6307 16.4373 12.6476 16.4644 12.664L16.4864 12.6776L16.529 12.7031C16.5395 12.7093 16.5504 12.7151 16.5608 12.7222C16.5948 12.7449 16.6275 12.7704 16.6604 12.7956L16.6722 12.8047C16.687 12.816 16.7022 12.8271 16.7175 12.838L16.7306 12.8473C16.7877 12.894 16.8415 12.9427 16.8906 12.9916L18.7037 14.8047C18.7528 14.8538 18.8013 14.9076 18.8462 14.9622L18.858 14.9782C18.8688 14.9933 18.8797 15.0082 18.8911 15.0231L18.9013 15.0367C18.926 15.0689 18.9508 15.1007 18.9733 15.1344C18.9804 15.1451 18.9864 15.156 18.9929 15.1669L19.0177 15.2087L19.0317 15.2316C19.0482 15.2584 19.0649 15.2849 19.0797 15.3129C19.0882 15.3287 19.0955 15.3449 19.1029 15.3609L19.12 15.3971L19.1302 15.4184C19.1429 15.4449 19.156 15.4711 19.1671 15.4982C19.176 15.5193 19.1833 15.5409 19.1911 15.5624L19.2013 15.5909L19.2075 15.6078C19.2175 15.6349 19.2275 15.662 19.2362 15.69C19.2451 15.7184 19.2522 15.7471 19.2595 15.7758L19.2651 15.7969C19.2726 15.8264 19.2804 15.8558 19.2869 15.8858C19.2944 15.9211 19.3 15.9567 19.3055 15.9924C19.3104 16.0231 19.3153 16.0536 19.3189 16.0847C19.3233 16.1224 19.326 16.1602 19.3284 16.1978C19.3302 16.2267 19.332 16.2553 19.3326 16.2842C19.3335 16.324 19.3333 16.3638 19.3322 16.4033C19.3313 16.4302 19.3302 16.4571 19.3284 16.4842C19.3257 16.5258 19.3217 16.5671 19.3169 16.6076C19.3137 16.6324 19.31 16.6569 19.3062 16.6818C19.2993 16.7249 19.2917 16.7676 19.2824 16.8102C19.278 16.83 19.2729 16.8498 19.2662 16.8762C19.2551 16.9204 19.2431 16.9647 19.2293 17.008C19.2257 17.0193 19.2215 17.0307 19.2175 17.0418L19.2091 17.0653C19.1931 17.1107 19.1766 17.1558 19.1577 17.1998L19.1495 17.2173L19.1353 17.2478C19.114 17.2942 19.0922 17.3402 19.0651 17.3893L19.0457 17.4222C19.0135 17.4782 18.9882 17.5198 18.9646 17.5549C18.9571 17.5649 18.9497 17.5749 18.9426 17.5849C18.9013 17.644 18.8664 17.6902 18.8328 17.73C18.782 17.7909 18.7422 17.8351 18.704 17.8733L18.6982 17.8791L18.6924 17.8851C17.8044 18.8193 16.4637 19.3333 14.9173 19.3333C12.0326 19.3333 8.71497 17.5913 5.57205 14.4247C2.37846 11.2551 0.636442 7.91111 0.667109 5.00889C0.683109 3.49467 1.19689 2.18044 2.11379 1.30778L2.11979 1.302L2.12557 1.29622C2.16379 1.258 2.20801 1.21822 2.2689 1.16711C2.30913 1.13356 2.35535 1.09844 2.41446 1.05711C2.42402 1.05044 2.43335 1.04356 2.44402 1.03556C2.47957 1.01156 2.52135 0.986 2.57824 0.953556L2.61335 0.932444C2.65868 0.907556 2.70513 0.885778 2.75202 0.864222L2.78202 0.850222L2.79846 0.842444C2.84313 0.823333 2.88869 0.806667 2.93469 0.790444L2.95824 0.782C2.96913 0.778222 2.9798 0.774222 2.99047 0.770667C3.03447 0.756667 3.07869 0.744667 3.13024 0.731556C3.14958 0.726667 3.16891 0.721556 3.18847 0.717333C3.23136 0.708 3.27425 0.700222 3.31802 0.693333C3.34225 0.689556 3.36647 0.685778 3.39025 0.682889C3.4318 0.677778 3.47314 0.674 3.5158 0.671111C3.54225 0.669333 3.56892 0.668222 3.59514 0.667333C3.61936 0.667111 3.64336 0.666667 3.66736 0.666667ZM3.66736 0C3.63669 0 3.60625 0.000444444 3.57558 0.00133333C3.54069 0.00244444 3.50603 0.004 3.47136 0.00622222C3.41714 0.00977778 3.36291 0.0148889 3.30891 0.0215556C3.27714 0.0255556 3.24558 0.0302222 3.2138 0.0351111C3.15736 0.044 3.10136 0.0542222 3.04536 0.0664444C3.01691 0.0726667 2.98869 0.08 2.96047 0.0871111C2.90224 0.102 2.84446 0.117778 2.78691 0.136222C2.76224 0.144222 2.7378 0.153333 2.71335 0.161778C2.65357 0.182889 2.59424 0.204889 2.53557 0.23C2.51491 0.238889 2.49468 0.248889 2.47424 0.258444C2.41313 0.286444 2.35246 0.315556 2.29313 0.348C2.27713 0.356889 2.26157 0.366667 2.24579 0.376C2.18335 0.411778 2.12135 0.448889 2.06112 0.49C2.05134 0.496667 2.04201 0.504222 2.03223 0.511111C1.96712 0.556667 1.90312 0.604222 1.84134 0.655778C1.77734 0.709333 1.71423 0.764667 1.65423 0.824667C-0.859796 3.21689 -1.08447 8.75733 5.10226 14.8978C8.7683 18.5916 12.221 20 14.9173 20C16.7368 20 18.2115 19.3587 19.1755 18.3458C19.2355 18.2858 19.2911 18.2227 19.3444 18.1587C19.396 18.0971 19.4431 18.0333 19.4886 17.9687C19.4957 17.9587 19.5035 17.9491 19.5104 17.9389C19.5513 17.8789 19.5882 17.8173 19.624 17.7551C19.6333 17.7389 19.6435 17.7231 19.6524 17.7067C19.6849 17.6476 19.7137 17.5873 19.7415 17.5264C19.7511 17.5056 19.7613 17.4851 19.7704 17.4642C19.7955 17.406 19.8173 17.3469 19.8382 17.2873C19.8469 17.2624 19.8562 17.2378 19.8642 17.2127C19.8824 17.1556 19.8982 17.098 19.9129 17.04C19.9202 17.0113 19.9273 16.9829 19.9337 16.9542C19.946 16.8987 19.956 16.8429 19.9649 16.7867C19.97 16.7547 19.9746 16.7229 19.9786 16.6907C19.9853 16.6369 19.9902 16.5831 19.9937 16.5291C19.996 16.494 19.9977 16.4591 19.9986 16.424C20.0002 16.3722 20.0004 16.3207 19.9993 16.2689C19.9984 16.2313 19.9964 16.1938 19.994 16.1562C19.9909 16.1069 19.9871 16.0576 19.9813 16.0084C19.9766 15.9684 19.9704 15.9287 19.9642 15.8887C19.9569 15.842 19.9493 15.7956 19.9395 15.7493C19.9306 15.7073 19.9197 15.6658 19.9091 15.624C19.8977 15.5802 19.8869 15.5367 19.8735 15.4936C19.86 15.45 19.844 15.4071 19.8284 15.364C19.8137 15.3236 19.7997 15.2829 19.7831 15.2429C19.7644 15.198 19.7429 15.1544 19.7217 15.1104C19.704 15.0733 19.6875 15.036 19.668 14.9998C19.6433 14.9533 19.6151 14.9087 19.5877 14.8633C19.568 14.8309 19.5497 14.7976 19.5284 14.7658C19.4951 14.7158 19.458 14.6678 19.4211 14.6196C19.4017 14.5942 19.3844 14.568 19.3642 14.5433C19.3053 14.4713 19.2424 14.4013 19.1753 14.3342L17.3622 12.5211C17.2951 12.454 17.2251 12.3913 17.1531 12.3322C17.1284 12.312 17.1024 12.2949 17.0773 12.2756C17.0288 12.2387 16.9808 12.2013 16.9306 12.168C16.8988 12.1469 16.8659 12.1289 16.8335 12.1091C16.7882 12.0816 16.7433 12.0533 16.6968 12.0287C16.6606 12.0093 16.6233 11.9927 16.5864 11.9751C16.5424 11.954 16.4984 11.9324 16.4535 11.9138C16.4135 11.8971 16.3726 11.8831 16.3319 11.8682C16.289 11.8527 16.2466 11.8369 16.203 11.8233C16.1595 11.8098 16.1155 11.7987 16.0715 11.7873C16.0302 11.7767 15.9888 11.766 15.9473 11.7571C15.9006 11.7473 15.8539 11.7396 15.807 11.7322C15.7675 11.726 15.7279 11.7198 15.6881 11.7151C15.6388 11.7093 15.5895 11.7056 15.5399 11.7024C15.5024 11.7 15.465 11.698 15.4275 11.6971C15.4061 11.6967 15.3848 11.6964 15.3637 11.6964C15.333 11.6964 15.3026 11.6969 15.2719 11.6978C15.237 11.6989 15.2024 11.7004 15.1677 11.7027C15.1135 11.7062 15.0593 11.7113 15.0053 11.718C14.9735 11.722 14.9419 11.7267 14.9101 11.7316C14.8537 11.7404 14.7977 11.7507 14.7417 11.7629C14.7133 11.7691 14.685 11.7764 14.6568 11.7836C14.5986 11.7982 14.5408 11.814 14.4832 11.8324C14.4586 11.8404 14.4341 11.8496 14.4097 11.858C14.3499 11.8791 14.2906 11.9011 14.2319 11.9262C14.2112 11.9351 14.191 11.9451 14.1706 11.9547C14.1095 11.9827 14.0488 12.0118 13.9895 12.0442C13.9735 12.0531 13.9579 12.0629 13.9421 12.0722C13.8795 12.1082 13.8177 12.1453 13.7575 12.1864C13.7477 12.1931 13.7384 12.2009 13.7286 12.2076C13.6635 12.2531 13.5995 12.3004 13.5377 12.3522C13.4737 12.4058 13.4106 12.4611 13.3506 12.5211L12.1239 13.7478C12.0452 13.8264 11.9423 13.8656 11.8394 13.8656C11.7366 13.8656 11.6334 13.8262 11.555 13.7478L6.2525 8.44533C6.09539 8.28822 6.09539 8.03333 6.2525 7.87622L7.47918 6.64956C7.53918 6.58956 7.59473 6.52644 7.64829 6.46244C7.69985 6.40089 7.74696 6.33711 7.79252 6.27244C7.79963 6.26244 7.8074 6.25289 7.81429 6.24267C7.85518 6.18267 7.89207 6.12111 7.92785 6.05889C7.93718 6.04267 7.94741 6.02689 7.95629 6.01044C7.98874 5.95133 8.01763 5.89111 8.04541 5.83022C8.05496 5.80933 8.06518 5.78889 8.0743 5.768C8.09941 5.70978 8.12118 5.65067 8.14207 5.59111C8.15074 5.56622 8.16007 5.54156 8.16807 5.51644C8.1863 5.45933 8.20207 5.40178 8.21674 5.34378C8.22407 5.31511 8.23119 5.28667 8.23763 5.258C8.24985 5.20244 8.25985 5.14667 8.26874 5.09044C8.27385 5.05844 8.27852 5.02667 8.28252 4.99444C8.28919 4.94067 8.29408 4.88689 8.29763 4.83289C8.30008 4.79778 8.30163 4.76289 8.30252 4.72778C8.30408 4.676 8.3043 4.62444 8.30319 4.57267C8.3023 4.53511 8.3003 4.49756 8.29785 4.46C8.29474 4.41067 8.29096 4.36133 8.28519 4.31222C8.28052 4.27222 8.2743 4.23244 8.26808 4.19244C8.26074 4.14578 8.25296 4.09933 8.24341 4.05311C8.23452 4.01111 8.22363 3.96956 8.21296 3.92778C8.20163 3.884 8.19074 3.84044 8.17719 3.79733C8.16363 3.75378 8.14763 3.71089 8.13207 3.66778C8.11741 3.62733 8.10341 3.58667 8.08674 3.54667C8.06807 3.50178 8.04652 3.45822 8.02541 3.41422C8.00763 3.37711 7.99118 3.33978 7.97163 3.30356C7.94696 3.25711 7.91874 3.21244 7.8914 3.16711C7.87163 3.13467 7.8534 3.10133 7.83207 3.06956C7.79874 3.01956 7.76163 2.97156 7.72474 2.92333C7.7054 2.898 7.68807 2.87178 7.66785 2.84711C7.60896 2.77511 7.54607 2.70511 7.47896 2.638L5.66583 0.824889C5.59871 0.757778 5.52871 0.695111 5.45671 0.636C5.43205 0.615778 5.40605 0.598667 5.38071 0.579333C5.33227 0.542444 5.28427 0.505111 5.23404 0.471778C5.20227 0.450667 5.16938 0.432667 5.13693 0.412889C5.0916 0.385333 5.04671 0.357111 5.00026 0.332444C4.96404 0.313111 4.92671 0.296444 4.88982 0.278889C4.84582 0.257778 4.80182 0.236222 4.75693 0.217556C4.71693 0.200889 4.67604 0.186889 4.63537 0.172C4.59248 0.156444 4.55004 0.140667 4.50648 0.127111C4.46292 0.113556 4.41892 0.102444 4.37492 0.0911111C4.33359 0.0804444 4.29226 0.0697778 4.2507 0.0608889C4.20403 0.0511111 4.15737 0.0433333 4.11048 0.036C4.07092 0.0297778 4.03137 0.0235556 3.99159 0.0188889C3.94225 0.0131111 3.89292 0.00933333 3.84336 0.00622222C3.80581 0.00377778 3.76847 0.00177778 3.73092 0.000888889C3.71003 0.000222222 3.6887 0 3.66736 0Z" fill="white"/>
</svg>
