<svg width="135" height="40" viewBox="0 0 135 40" fill="none" xmlns="http://www.w3.org/2000/svg">
<path fill-rule="evenodd" clip-rule="evenodd" d="M81.2326 21.3419C81.1647 19.4523 81.0506 17.7228 80.8745 16.1131C80.1623 15.9205 79.3682 15.8258 78.4561 15.8225C76.8557 15.8164 76.0658 15.9999 74.4605 16.7505C73.3601 17.265 71.6078 18.467 70.5669 19.4208C68.6737 21.1555 68.6737 21.1555 67.1148 18.9581C65.5559 16.7611 65.5559 16.7611 66.5587 15.7296C67.1105 15.1625 68.5734 14.0264 69.8098 13.2051C71.1051 12.3449 72.966 11.4391 74.2021 11.0676C75.9231 10.55 76.9116 10.447 79.2073 10.5467C79.4548 10.5574 79.6836 10.5683 79.8967 10.5802C79.0381 7.26272 77.7012 4.35077 75.6614 1.27644L76.4947 0.723572C78.6728 4.00643 80.0709 7.11517 80.9492 10.6629C82.1897 10.8006 82.898 11.0763 84.4092 11.8157C85.7552 12.4743 87.3682 13.5738 88.2038 14.4028C89.0032 15.1959 90.0325 16.5306 90.4909 17.3683C90.9494 18.2064 91.5365 19.6966 91.7952 20.6798C92.0539 21.6631 92.2656 23.1618 92.2656 24.0104C92.2656 24.8591 92.0539 26.3578 91.7952 27.3411C91.5365 28.3243 90.9494 29.8145 90.4909 30.6526C90.0325 31.4903 88.9756 32.852 88.1427 33.6782C87.2049 34.6086 85.7488 35.594 84.3175 36.2668C82.308 37.2115 81.6406 37.3691 79.2015 37.4745C77.1807 37.562 75.8909 37.453 74.5876 37.0845C73.593 36.8029 71.8306 36.0202 70.6715 35.3446C69.5121 34.6694 67.5512 33.1646 66.3135 32.0009C64.9126 30.6836 63.0078 28.3535 61.2675 25.8281C61.1927 25.7195 61.1175 25.6112 61.0421 25.5034H47.0949C46.6831 26.6686 45.5718 27.5034 44.2656 27.5034C42.6088 27.5034 41.2656 26.1602 41.2656 24.5034C41.2656 22.8465 42.6088 21.5034 44.2656 21.5034C45.5718 21.5034 46.6831 22.3382 47.0949 23.5034H59.5779C58.3799 21.9408 57.2095 20.5925 56.297 19.7403C54.9965 18.5262 53.3663 17.3595 52.2422 16.8389C51.2084 16.3602 49.7308 15.8827 48.9586 15.7779C48.0334 15.6524 46.955 15.7599 45.7966 16.0932C44.6053 16.4361 43.5861 17.0102 42.6348 17.8747C41.8627 18.5763 40.908 19.8339 40.5131 20.6692C40.011 21.7317 39.7956 22.7353 39.7956 24.0104C39.7956 25.2856 40.011 26.2892 40.5131 27.3517C40.908 28.187 41.8627 29.4446 42.6348 30.1462C43.5846 31.0095 44.6053 31.5848 45.792 31.9262C46.9839 32.2694 48.0273 32.3676 49.0501 32.2333C49.8778 32.1246 50.9291 31.8761 51.3864 31.6814C51.8439 31.4864 52.787 30.9509 53.482 30.491C54.1774 30.0314 55.4752 29.0393 56.3661 28.2867C57.1158 27.6533 57.5185 27.3131 57.886 27.3476C58.3125 27.3876 58.6916 27.9322 59.5107 29.1089C60.288 30.2258 60.6691 30.7734 60.6087 31.2668C60.5506 31.7414 60.0842 32.1659 59.1694 32.9987C58.1429 33.9331 56.5045 35.1171 55.528 35.6298C54.5512 36.1426 52.9382 36.7947 51.9437 37.079C50.6318 37.4539 49.364 37.5626 47.3297 37.4745C44.8916 37.3691 44.2229 37.2112 42.2168 36.2683C40.7405 35.5743 39.3561 34.6275 38.3732 33.6391C37.5287 32.7898 36.4705 31.4274 36.0219 30.6119C35.5735 29.796 34.9948 28.3243 34.7361 27.3411C34.4774 26.3578 34.2656 24.8591 34.2656 24.0104C34.2656 23.1618 34.4774 21.6631 34.7361 20.6798C34.9948 19.6966 35.5686 18.2337 36.0112 17.4291C36.4534 16.6241 37.4345 15.3444 38.1906 14.5853C38.9471 13.826 40.2013 12.836 40.978 12.3856C41.7544 11.9351 43.0822 11.3294 43.9283 11.04C44.0339 11.0038 44.1466 10.9691 44.2656 10.9361V7.50336H38.2656V5.50336H51.2656V7.50336H48.2656V10.5046C49.8145 10.5218 51.2159 10.723 52.4792 11.1092C53.5864 11.4476 55.5123 12.3998 56.7586 13.2248C58.0048 14.0498 59.9869 15.7277 61.1632 16.9534C62.3395 18.1793 64.2476 20.6102 65.4033 22.3556C65.6403 22.7134 65.9125 23.1015 66.2065 23.5034H78.2656V25.5034H67.7587C68.5008 26.4095 69.2435 27.2489 69.8347 27.8335C71.4715 29.4518 72.8025 30.4463 74.3068 31.1747C76.0913 32.0389 76.7824 32.2099 78.4497 32.2014C79.7959 32.1944 80.9041 31.9866 81.8351 31.5672C82.5965 31.2239 83.6899 30.4776 84.2647 29.9087C84.8395 29.3398 85.6472 28.1451 86.059 27.2542C86.6783 25.9159 86.7866 25.2822 86.6835 23.6074C86.6151 22.4926 86.3128 21.0774 86.0117 20.4629C85.711 19.8481 84.9678 18.8385 84.3601 18.2194C83.77 17.6176 82.6879 16.8538 81.9196 16.4922C82.0701 17.9896 82.1701 19.5846 82.2319 21.306L81.2326 21.3419ZM0 39.5034V4.59427H24.5455V12.2306H9.47727V18.2306H23.0455V25.867H9.47727V39.5034H0ZM117.346 39.5034H103.914V4.59427H117.21C120.8 4.59427 123.903 5.29313 126.516 6.69086C129.141 8.07722 131.164 10.0772 132.585 12.6909C134.016 15.2931 134.732 18.4125 134.732 22.0488C134.732 25.6852 134.022 28.8102 132.602 31.4238C131.181 34.0261 129.17 36.0261 126.567 37.4238C123.965 38.8102 120.891 39.5034 117.346 39.5034ZM113.391 31.4579H117.005C118.732 31.4579 120.204 31.1795 121.42 30.6227C122.647 30.0659 123.579 29.1056 124.215 27.742C124.863 26.3784 125.187 24.4806 125.187 22.0488C125.187 19.617 124.857 17.7193 124.198 16.3556C123.55 14.992 122.596 14.0318 121.335 13.4749C120.085 12.9181 118.55 12.6397 116.732 12.6397H113.391V31.4579Z" fill="white"/>
</svg>
